<mxfile host="app.diagrams.net" modified="2023-05-21T19:04:02.640Z" agent="Mozilla/5.0 (Macintosh; Intel Mac OS X 10_15_7) AppleWebKit/537.36 (KHTML, like Gecko) Chrome/112.0.0.0 Safari/537.36 OPR/98.0.0.0" version="21.3.2" etag="RI4tfWfkc21MU6vLpz-s" type="github">
  <diagram name="Page-1" id="gs0pLVagQkpj5RPHp093">
    <mxGraphModel>
      <root>
        <mxCell id="0" />
        <mxCell id="1" parent="0" />
      </root>
    </mxGraphModel>
  </diagram>
</mxfile>
